<svg xmlns="http://www.w3.org/2000/svg" xmlns:xlink="http://www.w3.org/1999/xlink" viewBox="0 0 1109 596"><defs><style>.cls-1{fill:#ccc;}.cls-2{fill:#4d4d4d;}.cls-3{fill:#666;}.cls-4{fill:#1a1a1a;}.cls-5{fill:#333;}.cls-6{font-size:90px;}.cls-6,.cls-7{fill:#29abe2;}.cls-13,.cls-6{font-family:CascadiaCode-Regular, Cascadia Code;}.cls-8{fill:#fbb03b;}.cls-9{fill:#39b54a;}.cls-10{fill:#f7931e;}.cls-11{fill:#934f9c;}.cls-12{fill:#e6e6e6;}.cls-13{font-size:112px;fill:#0071bc;}.cls-14{fill:#ed1c24;}.cls-15{fill:#fcdb77;}.cls-16{fill:url(#Degradado_sin_nombre_36);}.cls-17{fill:#c7b299;}</style><radialGradient id="Degradado_sin_nombre_36" cx="285.5" cy="429.5" r="5.5" gradientUnits="userSpaceOnUse"><stop offset="0" stop-color="#fff"/><stop offset="0.04" stop-color="#fffdfa"/><stop offset="0.27" stop-color="#fff5df"/><stop offset="0.5" stop-color="#fff0cc"/><stop offset="0.74" stop-color="#ffecc1"/><stop offset="1" stop-color="#ffebbd"/></radialGradient></defs><title>alrevolutum-logo</title><g id="Capa_2" data-name="Capa 2"><g id="Capa_1-2" data-name="Capa 1"><polygon class="cls-1" points="749 537 500 537 545 390 704 390 749 537"/><circle class="cls-2" cx="910.5" cy="439.5" r="5.5"/><circle class="cls-2" cx="927.5" cy="439.5" r="5.5"/><circle class="cls-3" cx="945.5" cy="439.5" r="5.5"/><rect class="cls-4" x="246.5" y="0.5" width="770" height="440"/><path d="M1016,1V440H247V1h769m1-1H246V441h771V0Z"/><rect class="cls-5" x="254.48" y="8.48" width="753.04" height="410.04"/><path d="M1007.05,9v409.1H255V9h752.1m1-.95H254V419h754V8Z"/><text class="cls-6" transform="translate(373 103.88)">A</text><text class="cls-6" transform="translate(425.73 103.88) scale(0.7)">L</text><text class="cls-6" transform="translate(462.65 103.88)"><tspan xml:space="preserve"> R</tspan></text><text class="cls-6" transform="translate(568.12 103.88) scale(0.7)">EVOLUTUM</text><rect class="cls-7" x="429.61" y="165" width="82.79" height="10"/><rect class="cls-7" x="323.49" y="372" width="179.57" height="10"/><rect class="cls-8" x="543.88" y="372" width="102.61" height="10"/><rect class="cls-9" x="681.47" y="372" width="150.42" height="10"/><rect class="cls-9" x="436.6" y="325" width="179.57" height="10"/><rect class="cls-8" x="656.99" y="325" width="102.61" height="10"/><rect class="cls-7" x="794.58" y="325" width="150.42" height="10"/><rect class="cls-10" x="382.96" y="270" width="179.57" height="10"/><rect class="cls-11" x="599.85" y="270" width="97.95" height="10"/><rect class="cls-12" x="725.78" y="270" width="97.95" height="10"/><rect class="cls-9" x="492.57" y="215" width="209.89" height="10"/><rect class="cls-12" x="752.6" y="165" width="118.94" height="10"/><rect class="cls-10" x="545.04" y="165" width="179.57" height="10"/><text class="cls-13" transform="translate(911.13 119.56)">}</text><rect class="cls-5" x="26" y="116" width="66.18" height="418.11"/><polygon class="cls-14" points="26 273.67 28.73 231.62 32.62 269.77 34.17 227.73 26 202.81 26 273.67"/><polygon class="cls-14" points="26 177.51 27.56 187.63 29.89 182.18 33.79 202.42 41.57 193.08 39.24 228.12 43.13 238.24 37.68 233.57 43.13 273.28 45.47 270.94 50.14 297.41 51.69 281.84 51.69 312.98 64.15 295.86 66.49 316.1 72.72 292.74 81.28 324.66 74.27 273.28 81.28 245.25 71.16 250.7 81.28 235.13 83.62 197.75 86.73 206.32 88.29 174.4 84.39 166.61 88.29 159.6 92.18 166.61 92.18 116 26 116 26 177.51"/><polyline class="cls-14" points="92.18 183.35 85.95 224.22 92.18 273.67"/><rect class="cls-1" x="136.56" y="172.06" width="65.4" height="359.71" transform="translate(-82.81 53.66) rotate(-14.52)"/><rect class="cls-2" x="96.65" y="177.14" width="65.4" height="41.27" transform="translate(-45.44 38.74) rotate(-14.52)"/><rect class="cls-15" x="105.43" y="217.29" width="65.4" height="28.81" transform="translate(-53.67 42.02) rotate(-14.52)"/><rect class="cls-5" x="176.28" y="483.89" width="65.4" height="42.82" transform="translate(-119.98 68.51) rotate(-14.52)"/><circle class="cls-16" cx="285.5" cy="429.5" r="5.5"/><rect class="cls-11" x="316" y="165" width="82.79" height="10"/><rect class="cls-10" x="381.46" y="215" width="64.13" height="10"/><text class="cls-13" transform="translate(288 118.56)">{ </text><rect class="cls-17" y="535" width="1109" height="61"/></g></g></svg>